<svg width="32" height="32" viewBox="0 0 32 32" fill="none" xmlns="http://www.w3.org/2000/svg">
<path d="M31.1927 14.7801L27.0166 12.369C26.5158 12.0798 26.2078 11.3362 26.3575 10.7777L27.6055 6.11975C27.7425 5.60859 27.6746 5.14026 27.4144 4.80103C27.1788 4.49405 26.8116 4.32502 26.3804 4.32502C26.2205 4.32502 26.0523 4.34843 25.8802 4.39452L21.2223 5.64262C21.1278 5.66794 21.0258 5.68077 20.9189 5.68077C20.406 5.68086 19.8644 5.38754 19.6311 4.9835L17.22 0.807303C16.9238 0.294231 16.4791 0 16 0C15.5209 0 15.0762 0.294231 14.7801 0.807259L12.369 4.9835C12.1357 5.38749 11.594 5.68073 11.0811 5.68073C10.9742 5.68073 10.8721 5.66794 10.7776 5.64262L6.11977 4.39447C5.94775 4.34839 5.77946 4.32502 5.61958 4.32502C5.1884 4.32502 4.82117 4.49401 4.58568 4.80098C4.32544 5.14013 4.2575 5.6085 4.3945 6.11971L5.6426 10.7777C5.79225 11.3362 5.48428 12.0798 4.98348 12.3689L0.807299 14.78C0.294273 15.0762 0 15.5209 0 16C0 16.4791 0.294273 16.9238 0.807299 17.22L4.98348 19.6311C5.48423 19.9202 5.79221 20.6638 5.6426 21.2223L4.3945 25.8802C4.25755 26.3915 4.32544 26.8598 4.58572 27.199C4.82125 27.506 5.18844 27.675 5.61958 27.675C5.77946 27.675 5.94775 27.6517 6.11977 27.6055L10.7777 26.3575C10.8722 26.3321 10.9742 26.3193 11.0811 26.3193C11.594 26.3193 12.1357 26.6125 12.369 27.0166L14.7801 31.1927C15.0762 31.7058 15.5209 32 16 32C16.4791 32 16.9238 31.7058 17.22 31.1927L19.6311 27.0166C19.8644 26.6125 20.4059 26.3193 20.9189 26.3193C21.0257 26.3193 21.1278 26.3321 21.2223 26.3575L25.8802 27.6055C26.0522 27.6516 26.2205 27.675 26.3804 27.675C26.3804 27.675 26.3805 27.675 26.3806 27.675C26.8116 27.675 27.1788 27.506 27.4143 27.1991C27.6746 26.8599 27.7425 26.3915 27.6055 25.8802L26.3575 21.2223C26.2078 20.6637 26.5158 19.9202 27.0166 19.631L31.1927 17.2199C31.7058 16.9237 32 16.4791 32 16C32 15.521 31.7058 15.0763 31.1927 14.7801ZM16 22.5699C12.3774 22.5699 9.43017 19.6227 9.43017 16C9.43017 12.3774 12.3774 9.43016 16 9.43016C19.6226 9.43016 22.5699 12.3774 22.5699 16C22.5699 19.6227 19.6226 22.5699 16 22.5699Z" fill="black"/>
</svg>
