<svg width="32" height="32" viewBox="0 0 32 32" fill="none" xmlns="http://www.w3.org/2000/svg">
<path fill-rule="evenodd" clip-rule="evenodd" d="M17.0055 2.06589C17.44 1.77098 17.6184 1.2475 17.4449 0.774276C17.2714 0.301055 16.7864 -0.0132849 16.2486 0.000431691C7.25414 0.215324 0 7.28963 0 15.9974C0 24.8411 7.48183 32 16.6695 32C23.4486 32 29.2959 28.1079 31.899 22.5104C32.1144 22.0464 31.9778 21.5068 31.5605 21.1822C31.1445 20.8576 30.5489 20.8244 30.0947 21.1011C28.2707 22.2121 26.1107 22.8556 23.7956 22.8556C17.2529 22.8556 11.9631 17.7234 11.9631 11.4252C11.9631 7.55939 13.9532 4.13709 17.0055 2.06589Z" fill="black"/>
</svg>
