<svg width="11" height="13" viewBox="0 0 11 13" fill="none" xmlns="http://www.w3.org/2000/svg">
<path d="M7.44776 10.14H3.28448C2.4877 10.1392 1.72382 9.83953 1.16041 9.30685C0.596997 8.77417 0.280077 8.05195 0.279175 7.29863V3.36244C0.280077 2.60912 0.596997 1.8869 1.16041 1.35422C1.72382 0.821544 2.4877 0.52191 3.28448 0.521057H5.13897V1.27256H3.28448C2.69824 1.27303 2.13615 1.49342 1.72162 1.88534C1.30708 2.27727 1.07398 2.8087 1.07348 3.36296V7.29863C1.07398 7.8529 1.30708 8.38433 1.72162 8.77625C2.13615 9.16818 2.69824 9.38856 3.28448 9.38903H7.44776C8.03387 9.38837 8.59576 9.1679 9.01013 8.776C9.4245 8.38409 9.6575 7.85277 9.65799 7.29863V5.33054H10.4529V7.29863C10.452 8.05192 10.1351 8.77411 9.5717 9.30678C9.00834 9.83945 8.24451 10.1391 7.44776 10.14Z" fill="white"/>
<path d="M7.93068 1.43918L4.39993 4.77734L5.94281 6.23607L9.47356 2.89791L7.93068 1.43918Z" fill="white"/>
<path d="M9.17791 0.26001L8.21848 1.16711L9.76135 2.62584L10.7208 1.71873L9.17791 0.26001Z" fill="white"/>
<path d="M3.98804 5.16669L3.56729 7.0233L5.53101 6.6255L5.65509 6.50819L4.11212 5.04938L3.98804 5.16669Z" fill="white"/>
</svg>
